<?xml version="1.0" encoding="utf-8"?>
<svg version="1.1" x="0px" y="0px" viewBox="0 0 100 56" enable-background="new 0 0 100 100" xmlns="http://www.w3.org/2000/svg">
  <path d="M 91.432 13.627 C 91.432 12.481 90.328 11.57 84.939 10.842 C 81.239 10.342 76.328 10.067 71.11 10.067 C 68.023 10.067 65.066 10.17 62.381 10.353 L 62.381 10.129 L 62.381 9.375 L 61.641 9.243 C 61.474 9.213 61.307 9.188 61.141 9.16 C 62.151 8.585 62.387 8.007 62.387 7.468 C 62.387 6.273 61.298 4.904 53.229 3.814 C 47.81 3.082 40.613 2.679 32.965 2.679 C 25.317 2.679 18.12 3.082 12.701 3.814 C 4.632 4.904 3.544 6.272 3.544 7.468 C 3.544 8.002 3.771 8.575 4.764 9.148 C 4.577 9.183 4.39 9.211 4.204 9.247 L 3.47 9.386 L 3.47 10.13 C 3.47 13.401 3.497 17.304 3.524 21.159 C 3.573 28.221 3.62 35.103 3.473 42.519 L 3.473 42.565 C 3.542 44.69 7.018 46.461 12.592 47.62 C 17.822 48.708 25.013 49.376 32.928 49.376 C 40.856 49.376 48.061 48.719 53.293 47.64 C 58.849 46.494 62.313 44.739 62.382 42.617 L 62.382 42.59 L 62.382 41.711 C 65.013 41.984 67.953 42.147 71.084 42.147 C 76.48 42.147 81.382 41.7 84.943 40.965 C 88.723 40.186 91.081 38.991 91.128 37.547 L 91.128 37.528 L 91.128 15.437 L 91.128 14.925 L 90.738 14.855 C 91.258 14.479 91.432 14.071 91.432 13.627 Z M 89.062 13.614 C 88.639 13.777 87.925 13.99 86.749 14.215 C 85.899 14.092 85.05 13.978 84.199 13.874 L 84.199 12.643 C 86.545 12.935 88.208 13.283 89.062 13.614 Z M 75.832 13.159 L 75.832 12.03 C 78.288 12.113 80.457 12.256 82.314 12.436 L 82.314 13.66 C 80.154 13.431 77.993 13.26 75.832 13.159 Z M 80.915 35.907 L 77.697 36.473 L 77.697 33.465 L 80.915 32.898 L 80.915 35.907 Z M 80.915 30.985 L 77.697 31.552 L 77.697 28.578 L 80.915 28.012 L 80.915 30.985 Z M 80.915 26.099 L 77.697 26.666 L 77.697 23.584 L 80.915 23.016 L 80.915 26.099 Z M 80.915 21.104 L 77.697 21.671 L 77.697 18.701 L 80.915 18.133 L 80.915 21.104 Z M 77.697 38.387 L 80.915 37.82 L 80.915 40.366 C 79.899 40.489 78.824 40.594 77.697 40.678 L 77.697 38.387 Z M 80.915 16.22 L 77.697 16.787 L 77.697 14.488 C 78.769 14.557 79.842 14.643 80.915 14.744 L 80.915 16.22 Z M 73.947 11.98 L 73.947 13.089 C 72.993 13.061 72.04 13.042 71.085 13.039 C 69.878 13.036 68.672 13.06 67.465 13.098 L 67.465 12.001 C 68.629 11.972 69.831 11.95 71.111 11.95 C 72.092 11.951 73.032 11.963 73.947 11.98 Z M 65.58 12.062 L 65.58 13.175 C 64.514 13.229 63.447 13.299 62.382 13.385 L 62.382 12.238 C 63.385 12.167 64.444 12.108 65.58 12.062 Z M 60.35 7.454 C 60.028 7.669 59.202 8.069 57.216 8.517 C 55.397 8.239 53.577 7.992 51.756 7.775 L 51.756 5.53 C 56.499 6.1 59.491 6.828 60.35 7.454 Z M 47.815 40.579 L 42.202 41.569 L 42.202 36.251 L 47.815 35.261 L 47.815 40.579 Z M 47.815 33.347 L 42.202 34.336 L 42.202 29.069 L 47.815 28.079 L 47.815 33.347 Z M 47.815 26.167 L 42.202 27.157 L 42.202 21.729 L 47.815 20.74 L 47.815 26.167 Z M 47.815 18.826 L 42.202 19.816 L 42.202 14.552 L 47.815 13.562 L 47.815 18.826 Z M 42.202 43.482 L 47.815 42.492 L 47.815 46.706 C 46.062 46.93 44.185 47.113 42.202 47.253 L 42.202 43.482 Z M 47.815 11.649 L 42.202 12.639 L 42.202 8.707 C 44.072 8.824 45.943 8.973 47.815 9.154 L 47.815 11.649 Z M 39.46 6.764 L 39.46 4.666 C 43.431 4.792 46.932 5.025 49.872 5.323 L 49.872 7.561 C 46.403 7.185 42.933 6.917 39.46 6.764 Z M 37.576 4.616 L 37.576 6.694 C 36.026 6.645 34.477 6.609 32.927 6.604 C 31.006 6.599 29.085 6.639 27.164 6.705 L 27.164 4.643 C 29.002 4.592 30.934 4.562 32.965 4.562 C 34.566 4.562 36.094 4.583 37.576 4.616 Z M 14.868 7.619 L 14.868 5.453 C 17.763 5.127 21.253 4.86 25.28 4.706 L 25.28 6.776 C 21.809 6.939 18.338 7.215 14.868 7.619 Z M 5.58 7.454 C 6.365 6.882 8.94 6.227 12.984 5.684 L 12.984 7.859 C 11.518 8.048 10.052 8.256 8.586 8.489 C 6.693 8.052 5.897 7.664 5.58 7.454 Z M 12.957 45.861 C 8.249 44.882 5.319 43.694 5.265 42.517 C 5.412 35.103 5.364 28.217 5.315 21.15 C 5.293 18.006 5.271 14.822 5.268 10.873 C 14.492 9.171 23.712 8.37 32.927 8.396 C 35.389 8.403 37.853 8.473 40.317 8.598 L 40.317 47.371 C 37.959 47.5 35.489 47.575 32.927 47.575 C 25.12 47.575 18.061 46.922 12.957 45.861 Z M 60.589 42.559 C 60.551 43.733 57.633 44.912 52.935 45.88 C 51.936 46.086 50.841 46.271 49.701 46.443 L 49.701 9.345 C 53.33 9.74 56.959 10.251 60.591 10.883 L 60.589 42.559 Z M 62.382 40.477 L 62.382 14.609 C 65.284 14.371 68.185 14.251 71.085 14.259 C 72.66 14.263 74.236 14.303 75.813 14.378 L 75.813 40.796 C 74.298 40.872 72.72 40.919 71.084 40.919 C 67.938 40.92 64.998 40.755 62.382 40.477 Z M 89.909 37.506 C 89.883 38.305 87.896 39.108 84.699 39.766 C 84.108 39.888 83.465 39.998 82.8 40.104 L 82.8 14.936 C 85.168 15.2 87.538 15.539 89.909 15.952 L 89.909 37.506 Z"/>
</svg>