<?xml version="1.0" encoding="utf-8"?>
<svg version="1.1" x="0px" y="0px" viewBox="0 0 100 100" enable-background="new 0 0 100 100" xmlns="http://www.w3.org/2000/svg">
  <path d="M 98.704 38.153 C 98.704 36.89 97.486 35.885 91.544 35.083 C 87.464 34.531 82.048 34.228 76.294 34.228 C 72.89 34.228 69.629 34.342 66.668 34.543 L 66.668 34.297 L 66.668 33.465 L 65.852 33.32 C 65.667 33.286 65.484 33.259 65.301 33.228 C 66.414 32.594 66.675 31.957 66.675 31.362 C 66.675 30.044 65.473 28.534 56.576 27.333 C 50.6 26.526 42.663 26.081 34.229 26.081 C 25.795 26.081 17.86 26.526 11.884 27.333 C 2.985 28.534 1.786 30.043 1.786 31.362 C 1.786 31.951 2.036 32.583 3.131 33.215 C 2.925 33.253 2.718 33.284 2.513 33.324 L 1.704 33.477 L 1.704 34.298 C 1.704 37.905 1.733 42.208 1.764 46.46 C 1.817 54.247 1.87 61.837 1.707 70.015 L 1.707 70.065 C 1.784 72.409 5.616 74.362 11.764 75.64 C 17.53 76.839 25.461 77.576 34.189 77.576 C 42.931 77.576 50.877 76.851 56.646 75.662 C 62.774 74.398 66.593 72.462 66.669 70.123 L 66.669 70.093 L 66.669 69.124 C 69.571 69.425 72.812 69.605 76.266 69.605 C 82.216 69.605 87.622 69.112 91.548 68.301 C 95.716 67.441 98.317 66.124 98.369 64.531 L 98.369 64.511 L 98.369 40.15 L 98.369 39.585 L 97.939 39.508 C 98.512 39.093 98.704 38.644 98.704 38.153 Z M 96.09 38.139 C 95.624 38.319 94.837 38.555 93.54 38.802 C 92.602 38.667 91.666 38.541 90.728 38.426 L 90.728 37.069 C 93.314 37.391 95.148 37.775 96.09 38.139 Z M 81.501 37.638 L 81.501 36.392 C 84.21 36.484 86.601 36.642 88.649 36.841 L 88.649 38.19 C 86.267 37.938 83.884 37.749 81.501 37.638 Z M 87.106 62.723 L 83.558 63.347 L 83.558 60.03 L 87.106 59.405 L 87.106 62.723 Z M 87.106 57.296 L 83.558 57.92 L 83.558 54.641 L 87.106 54.017 L 87.106 57.296 Z M 87.106 51.907 L 83.558 52.533 L 83.558 49.134 L 87.106 48.507 L 87.106 51.907 Z M 87.106 46.399 L 83.558 47.024 L 83.558 43.749 L 87.106 43.123 L 87.106 46.399 Z M 83.558 65.458 L 87.106 64.832 L 87.106 67.64 C 85.986 67.776 84.801 67.892 83.558 67.984 L 83.558 65.458 Z M 87.106 41.013 L 83.558 41.638 L 83.558 39.103 C 84.74 39.179 85.923 39.274 87.106 39.386 L 87.106 41.013 Z M 79.422 36.338 L 79.422 37.56 C 78.37 37.53 77.32 37.509 76.267 37.506 C 74.935 37.502 73.605 37.529 72.275 37.57 L 72.275 36.361 C 73.558 36.329 74.883 36.304 76.295 36.304 C 77.377 36.305 78.414 36.319 79.422 36.338 Z M 70.196 36.428 L 70.196 37.655 C 69.02 37.715 67.844 37.792 66.669 37.887 L 66.669 36.623 C 67.775 36.544 68.943 36.479 70.196 36.428 Z M 64.429 31.346 C 64.073 31.584 63.163 32.025 60.972 32.518 C 58.966 32.212 56.96 31.94 54.951 31.701 L 54.951 29.225 C 60.182 29.854 63.481 30.656 64.429 31.346 Z M 50.605 67.875 L 44.415 68.967 L 44.415 63.103 L 50.605 62.01 L 50.605 67.875 Z M 50.605 59.9 L 44.415 60.991 L 44.415 55.183 L 50.605 54.091 L 50.605 59.9 Z M 50.605 51.982 L 44.415 53.074 L 44.415 47.089 L 50.605 45.997 L 50.605 51.982 Z M 50.605 43.888 L 44.415 44.979 L 44.415 39.174 L 50.605 38.082 L 50.605 43.888 Z M 44.415 71.077 L 50.605 69.985 L 50.605 74.632 C 48.672 74.879 46.603 75.08 44.415 75.235 L 44.415 71.077 Z M 50.605 35.973 L 44.415 37.064 L 44.415 32.729 C 46.478 32.858 48.541 33.022 50.605 33.222 L 50.605 35.973 Z M 41.392 30.585 L 41.392 28.273 C 45.771 28.411 49.632 28.668 52.874 28.997 L 52.874 31.464 C 49.048 31.05 45.222 30.754 41.392 30.585 Z M 39.315 28.217 L 39.315 30.509 C 37.605 30.454 35.896 30.415 34.188 30.41 C 32.069 30.404 29.951 30.448 27.832 30.521 L 27.832 28.246 C 29.859 28.191 31.99 28.157 34.229 28.157 C 35.996 28.157 37.68 28.181 39.315 28.217 Z M 14.274 31.528 L 14.274 29.14 C 17.465 28.781 21.314 28.486 25.755 28.316 L 25.755 30.599 C 21.927 30.778 18.1 31.084 14.274 31.528 Z M 4.031 31.346 C 4.897 30.716 7.736 29.993 12.195 29.395 L 12.195 31.793 C 10.578 32.002 8.962 32.231 7.346 32.488 C 5.259 32.006 4.381 31.579 4.031 31.346 Z M 12.166 73.7 C 6.974 72.621 3.743 71.31 3.683 70.012 C 3.845 61.837 3.793 54.243 3.739 46.45 C 3.715 42.983 3.69 39.472 3.686 35.117 C 13.858 33.24 24.026 32.357 34.188 32.385 C 36.903 32.393 39.62 32.47 42.337 32.608 L 42.337 75.365 C 39.737 75.508 37.013 75.59 34.188 75.59 C 25.578 75.59 17.794 74.87 12.166 73.7 Z M 64.692 70.058 C 64.65 71.354 61.432 72.653 56.251 73.721 C 55.15 73.948 53.943 74.152 52.686 74.342 L 52.686 33.432 C 56.687 33.867 60.689 34.431 64.694 35.128 L 64.692 70.058 Z M 66.669 67.763 L 66.669 39.237 C 69.87 38.974 73.069 38.842 76.267 38.851 C 78.004 38.856 79.742 38.899 81.48 38.982 L 81.48 68.114 C 79.809 68.198 78.069 68.25 76.266 68.25 C 72.796 68.251 69.553 68.069 66.669 67.763 Z M 97.025 64.487 C 96.995 65.368 94.805 66.253 91.279 66.979 C 90.628 67.113 89.918 67.234 89.185 67.351 L 89.185 39.597 C 91.797 39.888 94.41 40.262 97.025 40.718 L 97.025 64.487 Z" style="fill: rgb(245, 175, 0);"/>
</svg>